<?xml version="1.0" standalone="no"?>
<!DOCTYPE svg PUBLIC "-//W3C//DTD SVG 20010904//EN"
 "http://www.w3.org/TR/2001/REC-SVG-20010904/DTD/svg10.dtd">
<svg version="1.0" xmlns="http://www.w3.org/2000/svg"
 width="1024.000000pt" height="1024.000000pt" viewBox="0 0 1024.000000 1024.000000"
 preserveAspectRatio="xMidYMid meet">

<g transform="translate(0.000000,1024.000000) scale(0.100000,-0.100000)"
fill="#000000" stroke="none">
<path d="M5035 6655 c-132 -41 -238 -134 -304 -265 -122 -243 -48 -572 171
-764 45 -39 153 -106 172 -106 4 0 17 21 29 48 18 39 22 64 21 152 0 100 -2
111 -44 215 -101 257 -101 258 -97 385 5 140 25 198 97 288 50 62 50 62 22 61
-15 -1 -45 -7 -67 -14z"/>
<path d="M5178 6543 c-29 -33 -58 -99 -69 -157 -18 -99 2 -197 79 -381 57
-139 72 -199 72 -301 0 -102 -27 -196 -76 -260 l-36 -47 29 6 c120 24 214 92
288 211 60 96 85 172 92 281 13 199 -53 378 -201 542 -38 42 -142 123 -159
123 -2 0 -11 -8 -19 -17z"/>
<path d="M4015 6040 c-36 -14 -223 -218 -285 -312 -116 -173 -208 -402 -246
-613 -25 -135 -25 -440 -1 -571 98 -537 538 -1052 1059 -1243 391 -143 811
-135 1202 24 167 68 397 215 443 284 48 71 14 140 -73 148 -48 5 -50 4 -134
-64 -195 -157 -396 -245 -645 -284 -116 -18 -351 -16 -470 5 -446 76 -856 389
-1060 810 -110 227 -139 352 -139 606 0 255 48 465 155 670 74 141 123 209
233 325 72 75 86 95 86 123 0 43 -24 78 -62 91 -35 13 -36 13 -63 1z"/>
<path d="M4383 5495 c-117 -21 -214 -76 -314 -175 -144 -142 -195 -266 -206
-496 -10 -206 28 -373 126 -560 303 -576 975 -839 1563 -613 213 82 375 212
545 437 l86 112 121 0 c136 0 215 16 286 57 113 67 209 216 217 340 15 211
-91 382 -287 460 -42 17 -123 18 -1225 23 l-1179 5 67 71 c119 126 217 162
447 164 98 1 117 7 138 47 20 36 14 71 -17 105 l-29 33 -134 2 c-78 1 -163 -4
-205 -12z m1581 -657 c-47 -75 -97 -130 -173 -190 -139 -111 -213 -137 -419
-148 -130 -6 -157 -10 -180 -27 -42 -31 -42 -103 -2 -143 18 -18 34 -20 153
-20 198 0 285 18 422 87 127 63 285 200 346 298 11 17 19 28 19 25 0 -20 -33
-185 -46 -230 -63 -219 -261 -460 -486 -591 -186 -109 -413 -150 -644 -118
-378 52 -717 335 -838 701 -42 123 -56 204 -56 316 l0 82 965 0 965 0 -26 -42z
m538 6 c69 -48 101 -103 106 -180 5 -76 -15 -138 -61 -191 -50 -56 -93 -73
-193 -73 -85 0 -86 0 -80 23 39 131 48 185 53 316 l6 143 63 -4 c50 -3 72 -10
106 -34z"/>
</g>
</svg>
